<svg fill="#000000" xmlns="http://www.w3.org/2000/svg" viewBox="0 0 32 32" width="32px" height="32px"><path fill="none" stroke="#000000" stroke-width="2" d="M9.611,26h12.778C24.383,26,26,24.383,26,22.389V9.611	C26,7.617,24.383,6,22.389,6H9.611C7.617,6,6,7.617,6,9.611v12.778C6,24.383,7.617,26,9.611,26z"/><path fill="none" stroke="#000000" stroke-miterlimit="10" stroke-width="2" d="M18,19c0,1.657-1.343,3-3,3s-3-1.343-3-3	s1.343-3,3-3"/><line x1="18" x2="18" y1="19" y2="9" fill="none" stroke="#000000" stroke-miterlimit="10" stroke-width="2"/><path fill="none" stroke="#000000" stroke-miterlimit="10" stroke-width="2" d="M21.942,13C19.76,12.969,18,11.19,18,9"/></svg>